<svg width="33" height="32" viewBox="0 0 33 32" fill="none" xmlns="http://www.w3.org/2000/svg">
<path d="M6.89648 25.7617V7.33887C6.89648 6.76595 7.06478 6.31478 7.40137 5.98535C7.73796 5.65592 8.21777 5.49121 8.84082 5.49121H9.65723C11.5407 5.49121 13.2666 5.33008 14.835 5.00781C16.4105 4.68555 18.0075 4.26302 19.626 3.74023C19.8695 3.66862 20.0915 3.61491 20.292 3.5791C20.4997 3.53613 20.693 3.51465 20.8721 3.51465C21.3734 3.51465 21.7673 3.6543 22.0537 3.93359C22.3402 4.20573 22.4834 4.62109 22.4834 5.17969V5.55566H23.4932C25.2334 5.55566 26.1035 6.45801 26.1035 8.2627V24.6768C26.1035 25.3786 25.9889 25.9157 25.7598 26.2881C25.5378 26.6605 25.0902 27.0078 24.417 27.3301C23.8154 27.6237 23.153 27.8743 22.4297 28.082C21.7064 28.2897 20.9508 28.458 20.1631 28.5869C19.3825 28.723 18.5876 28.8232 17.7783 28.8877C16.9762 28.9521 16.1849 28.9844 15.4043 28.9844C13.8932 28.9844 12.5039 28.859 11.2363 28.6084C9.97591 28.3649 8.87663 28.0355 7.93848 27.6201C7.53027 27.4196 7.25456 27.1725 7.11133 26.8789C6.9681 26.5853 6.89648 26.2129 6.89648 25.7617ZM10.8604 13.8916C10.8604 14.0635 10.9463 14.1494 11.1182 14.1494C11.9775 14.1494 12.8333 14.0993 13.6855 13.999C14.5378 13.8988 15.3577 13.7555 16.1455 13.5693C16.9404 13.3831 17.6745 13.154 18.3477 12.8818C18.4479 12.8389 18.498 12.7601 18.498 12.6455V8.82129C18.498 8.69238 18.4551 8.61003 18.3691 8.57422C18.2832 8.53841 18.208 8.53483 18.1436 8.56348C16.9834 8.986 15.8304 9.30469 14.6846 9.51953C13.5459 9.73438 12.3571 9.86686 11.1182 9.91699C10.9463 9.93132 10.8604 10.028 10.8604 10.207V13.8916ZM12.5254 26.8574C13.1556 26.929 13.7715 26.9792 14.373 27.0078C14.9746 27.0436 15.5798 27.0579 16.1885 27.0508C17.0335 27.0365 17.8857 26.972 18.7451 26.8574C19.6045 26.7428 20.4281 26.5781 21.2158 26.3633C22.0036 26.1556 22.7197 25.9085 23.3643 25.6221C23.6722 25.4932 23.8691 25.3464 23.9551 25.1816C24.041 25.0169 24.084 24.777 24.084 24.4619V8.28418C24.084 7.81152 23.8727 7.5752 23.4502 7.5752H22.4834V22.3242C22.4834 22.8184 22.4189 23.2015 22.29 23.4736C22.1611 23.7458 21.9499 23.9928 21.6562 24.2148C21.1836 24.5729 20.6214 24.9059 19.9697 25.2139C19.3252 25.5218 18.609 25.7904 17.8213 26.0195C17.0335 26.2559 16.1921 26.4456 15.2969 26.5889C14.4089 26.7321 13.485 26.8216 12.5254 26.8574Z" fill="#4643D3"/>
</svg>
