<svg width="80" height="80" viewBox="0 0 80 80" fill="none" xmlns="http://www.w3.org/2000/svg">
<path d="M17.036 57.435C16.5331 57.435 16.1106 57.2628 15.7687 56.9186C15.4267 56.5744 15.2557 56.1492 15.2557 55.643V43.6458C15.2557 43.1396 15.4267 42.7144 15.7687 42.3702C16.1106 42.026 16.5331 41.8539 17.036 41.8539C17.539 41.8539 17.9715 42.026 18.3336 42.3702C18.6957 42.7144 18.8768 43.1396 18.8768 43.6458V55.643C18.8768 56.1492 18.6957 56.5744 18.3336 56.9186C17.9715 57.2628 17.539 57.435 17.036 57.435ZM24.0369 57.435C23.5339 57.435 23.1115 57.2628 22.7695 56.9186C22.4476 56.5744 22.2867 56.1492 22.2867 55.643V43.6458C22.2867 43.1396 22.4476 42.7144 22.7695 42.3702C23.1115 42.026 23.5339 41.8539 24.0369 41.8539C24.5398 41.8539 24.9723 42.026 25.3345 42.3702C25.6966 42.7144 25.8776 43.1396 25.8776 43.6458V55.643C25.8776 56.1492 25.6966 56.5744 25.3345 56.9186C24.9723 57.2628 24.5398 57.435 24.0369 57.435ZM31.0377 57.435C30.5348 57.435 30.1123 57.2628 29.7703 56.9186C29.4484 56.5744 29.2875 56.1492 29.2875 55.643V43.6458C29.2875 43.1396 29.4484 42.7144 29.7703 42.3702C30.1123 42.026 30.5348 41.8539 31.0377 41.8539C31.5407 41.8539 31.9732 42.026 32.3353 42.3702C32.6974 42.7144 32.8785 43.1396 32.8785 43.6458V55.643C32.8785 56.1492 32.6974 56.5744 32.3353 56.9186C31.9732 57.2628 31.5407 57.435 31.0377 57.435ZM40.0905 57.6779C39.4468 57.6779 38.9036 57.4653 38.461 57.0401C38.0184 56.5947 37.7971 56.0479 37.7971 55.4C37.7971 54.7926 38.0184 54.2762 38.461 53.851C38.9036 53.4055 39.4468 53.1828 40.0905 53.1828C40.6739 53.1828 41.1869 53.4055 41.6295 53.851C42.0922 54.2762 42.3236 54.7926 42.3236 55.4C42.3236 56.0479 42.1023 56.5947 41.6597 57.0401C41.2171 57.4653 40.694 57.6779 40.0905 57.6779ZM40.0905 51.9072C39.4468 51.8869 38.9036 51.6642 38.461 51.239C38.0184 50.7935 37.7971 50.2569 37.7971 49.6292C37.7971 49.0015 38.0184 48.465 38.461 48.0195C38.9036 47.574 39.4468 47.3513 40.0905 47.3513C40.6739 47.3513 41.1869 47.574 41.6295 48.0195C42.0922 48.465 42.3236 49.0015 42.3236 49.6292C42.3236 50.2569 42.1023 50.7935 41.6597 51.239C41.2171 51.6642 40.694 51.8869 40.0905 51.9072ZM40.0905 46.0756C39.4468 46.0554 38.9036 45.8327 38.461 45.4075C38.0184 44.962 37.7971 44.4153 37.7971 43.7673C37.7971 43.1599 38.0184 42.6334 38.461 42.188C38.9036 41.7425 39.4468 41.5198 40.0905 41.5198C40.6739 41.5198 41.1869 41.7425 41.6295 42.188C42.0922 42.6334 42.3236 43.1599 42.3236 43.7673C42.3236 44.4153 42.1023 44.962 41.6597 45.4075C41.2171 45.8327 40.694 46.0554 40.0905 46.0756ZM48.7209 57.435C48.2179 57.435 47.7955 57.2628 47.4535 56.9186C47.1115 56.5744 46.9405 56.1492 46.9405 55.643V43.6458C46.9405 43.1396 47.1115 42.7144 47.4535 42.3702C47.7955 42.026 48.2179 41.8539 48.7209 41.8539C49.2037 41.8539 49.6262 42.026 49.9883 42.3702C50.3504 42.7144 50.5314 43.1396 50.5314 43.6458V55.643C50.5314 56.1492 50.3504 56.5744 49.9883 56.9186C49.6262 57.2628 49.2037 57.435 48.7209 57.435ZM55.6915 57.435C55.2087 57.435 54.7963 57.2628 54.4543 56.9186C54.1123 56.5744 53.9413 56.1492 53.9413 55.643V43.6458C53.9413 43.1396 54.1123 42.7144 54.4543 42.3702C54.7963 42.026 55.2087 41.8539 55.6915 41.8539C56.1945 41.8539 56.627 42.026 56.9891 42.3702C57.3713 42.7144 57.5624 43.1396 57.5624 43.6458V55.643C57.5624 56.1492 57.3713 56.5744 56.9891 56.9186C56.627 57.2628 56.1945 57.435 55.6915 57.435ZM62.7225 57.435C62.2196 57.435 61.7971 57.2628 61.4552 56.9186C61.1132 56.5744 60.9422 56.1492 60.9422 55.643V43.6458C60.9422 43.1396 61.1132 42.7144 61.4552 42.3702C61.7971 42.026 62.2196 41.8539 62.7225 41.8539C63.2255 41.8539 63.658 42.026 64.0201 42.3702C64.3822 42.7144 64.5633 43.1396 64.5633 43.6458V55.643C64.5633 56.1492 64.3822 56.5744 64.0201 56.9186C63.658 57.2628 63.2255 57.435 62.7225 57.435ZM13.8977 66C10.6387 66 8.17435 65.1698 6.50461 63.5095C4.83487 61.8491 4 59.3889 4 56.1289V37.8447C4 35.6376 4.28164 33.7545 4.84493 32.1954C5.42833 30.6363 6.35373 29.1987 7.62112 27.8825L17.3378 17.8596C18.4241 16.7257 19.4501 15.8044 20.4158 15.0957C21.3814 14.3668 22.3973 13.8403 23.4635 13.5163C24.5499 13.1721 25.8173 13 27.2657 13H52.7343C54.1827 13 55.4401 13.1721 56.5063 13.5163C57.5926 13.8403 58.6186 14.3668 59.5842 15.0957C60.5499 15.8044 61.5759 16.7257 62.6622 17.8596L72.3487 27.8825C73.6161 29.1784 74.5415 30.6262 75.1249 32.2258C75.7083 33.8052 76 35.6781 76 37.8447V56.1289C76 59.3889 75.1651 61.8491 73.4954 63.5095C71.8256 65.1698 69.3512 66 66.0721 66H13.8977ZM14.1693 60.1685H65.8005C68.6974 60.1685 70.1459 58.7005 70.1459 55.7645V41.8235C70.1459 39.9606 69.2506 39.0292 67.4602 39.0292H12.5398C10.7494 39.0292 9.85415 39.9606 9.85415 41.8235V55.7645C9.85415 58.7005 11.2925 60.1685 14.1693 60.1685ZM12.0268 33.9266H67.9732C68.4962 33.9266 68.8181 33.7444 68.9388 33.3799C69.0796 32.9952 68.9992 32.6409 68.6974 32.3169L57.5926 20.5628C56.7678 19.6516 55.9832 19.0138 55.2389 18.6493C54.4946 18.2848 53.549 18.1026 52.4023 18.1026H27.5977C26.451 18.1026 25.5054 18.2949 24.7611 18.6797C24.0168 19.0441 23.2221 19.6718 22.3772 20.5628L11.3026 32.3169C11.0008 32.6409 10.9103 32.9952 11.031 33.3799C11.1718 33.7444 11.5038 33.9266 12.0268 33.9266Z" fill="#D15252"/>
</svg>
