<svg width="33" height="32" viewBox="0 0 33 32" fill="none" xmlns="http://www.w3.org/2000/svg">
<path d="M7.70215 12.8174C7.70215 11.5928 7.92773 10.4469 8.37891 9.37988C8.83724 8.31283 9.46745 7.37467 10.2695 6.56543C11.0788 5.75618 12.0133 5.1224 13.0732 4.66406C14.1403 4.20573 15.2826 3.97656 16.5 3.97656C17.7174 3.97656 18.8561 4.20573 19.916 4.66406C20.9831 5.1224 21.9176 5.75618 22.7197 6.56543C23.529 7.37467 24.1628 8.31283 24.6211 9.37988C25.0794 10.4469 25.305 11.5928 25.2979 12.8174C25.2907 14.1064 25.0257 15.3167 24.5029 16.4482C23.9873 17.5798 23.2819 18.5465 22.3867 19.3486V27.2764C22.3867 27.6559 22.2936 27.9316 22.1074 28.1035C21.9212 28.2754 21.6921 28.3613 21.4199 28.3613C21.2194 28.3613 21.0368 28.3112 20.8721 28.2109C20.7074 28.1178 20.5426 27.9889 20.3779 27.8242L16.9727 24.4404C16.8867 24.3617 16.8115 24.3044 16.7471 24.2686C16.6826 24.2399 16.6182 24.2256 16.5537 24.2256C16.4893 24.2256 16.4248 24.2399 16.3604 24.2686C16.2959 24.3044 16.2207 24.3617 16.1348 24.4404L12.7402 27.8242C12.5755 27.9818 12.4108 28.1107 12.2461 28.2109C12.0814 28.3112 11.8952 28.3613 11.6875 28.3613C11.4225 28.3613 11.1969 28.2754 11.0107 28.1035C10.8245 27.9316 10.7314 27.6559 10.7314 27.2764L10.7207 19.4561C9.79688 18.6468 9.06283 17.6693 8.51855 16.5234C7.97428 15.3704 7.70215 14.1351 7.70215 12.8174ZM9.83984 12.8174C9.83984 13.7484 10.0081 14.6185 10.3447 15.4277C10.6885 16.237 11.1611 16.9495 11.7627 17.5654C12.3714 18.1813 13.0804 18.6647 13.8896 19.0156C14.7061 19.3594 15.5798 19.5312 16.5107 19.5312C17.4417 19.5384 18.3118 19.3701 19.1211 19.0264C19.9375 18.6755 20.6465 18.1921 21.248 17.5762C21.8568 16.9603 22.333 16.2477 22.6768 15.4385C23.0205 14.6221 23.1888 13.7484 23.1816 12.8174C23.1816 11.8864 23.0098 11.0163 22.666 10.207C22.3223 9.39062 21.846 8.67448 21.2373 8.05859C20.6357 7.43555 19.9303 6.95215 19.1211 6.6084C18.3118 6.25749 17.4417 6.08203 16.5107 6.08203C15.5798 6.08203 14.7061 6.25749 13.8896 6.6084C13.0804 6.95215 12.3714 7.43555 11.7627 8.05859C11.1611 8.67448 10.6885 9.39062 10.3447 10.207C10.0081 11.0163 9.83984 11.8864 9.83984 12.8174Z" fill="#4643D3"/>
</svg>
