<svg width="33" height="32" viewBox="0 0 33 32" fill="none" xmlns="http://www.w3.org/2000/svg">
<path d="M29.9492 11.1953C30.3145 11.36 30.5938 11.5856 30.7871 11.8721C30.9805 12.1585 31.0771 12.4593 31.0771 12.7744C31.0771 13.0967 30.9805 13.3975 30.7871 13.6768C30.5938 13.9561 30.3145 14.1816 29.9492 14.3535L19.4434 19.166C18.8776 19.4167 18.3584 19.6029 17.8857 19.7246C17.4131 19.8464 16.9476 19.9036 16.4893 19.8965C16.0452 19.9036 15.5833 19.8499 15.1035 19.7354C14.6309 19.6136 14.1117 19.4238 13.5459 19.166L8.88379 17.0283L15.4365 13.9775C15.7731 14.085 16.1383 14.1387 16.5322 14.1387C16.9404 14.1387 17.3271 14.0814 17.6924 13.9668C18.0576 13.8451 18.3548 13.6839 18.584 13.4834C18.8132 13.2757 18.9277 13.0394 18.9277 12.7744C18.9277 12.5166 18.8132 12.2874 18.584 12.0869C18.3548 11.8864 18.0576 11.7288 17.6924 11.6143C17.3271 11.4997 16.9404 11.4424 16.5322 11.4424C16.124 11.4424 15.7337 11.4997 15.3613 11.6143C14.9961 11.7288 14.6953 11.8864 14.459 12.0869C14.2298 12.2874 14.1152 12.5166 14.1152 12.7744C14.1152 12.8532 14.1403 12.9248 14.1904 12.9893L7.22949 16.2334L3.05078 14.3535C2.67839 14.1816 2.39551 13.9561 2.20215 13.6768C2.01595 13.3975 1.92285 13.0967 1.92285 12.7744C1.92285 12.4593 2.01595 12.1585 2.20215 11.8721C2.39551 11.5856 2.67839 11.36 3.05078 11.1953L13.5459 6.39355C14.1045 6.13574 14.6237 5.94954 15.1035 5.83496C15.5833 5.71322 16.0452 5.65592 16.4893 5.66309C16.9476 5.65592 17.4131 5.71322 17.8857 5.83496C18.3584 5.94954 18.8776 6.13574 19.4434 6.39355L29.9492 11.1953ZM8.85156 18.7363L12.8906 20.584C14.2012 21.1784 15.4007 21.472 16.4893 21.4648C17.5921 21.472 18.7952 21.1784 20.0986 20.584L27.1133 17.3721V20.7773C27.1133 21.6081 26.8555 22.3923 26.3398 23.1299C25.8314 23.8604 25.1081 24.5049 24.1699 25.0635C23.2318 25.6221 22.111 26.0589 20.8076 26.374C19.5114 26.6891 18.0719 26.8467 16.4893 26.8467C14.9281 26.8467 13.4958 26.6855 12.1924 26.3633C10.8962 26.0482 9.78255 25.6077 8.85156 25.042V18.7363ZM5.87598 17.3721L7.27246 18.0166V23.7744C6.82129 23.3018 6.47396 22.8005 6.23047 22.2705C5.99414 21.7406 5.87598 21.2428 5.87598 20.7773V17.3721ZM7.27246 27.3623V23.7744C7.48014 24.0107 7.71647 24.2327 7.98145 24.4404C8.25358 24.6553 8.54362 24.8558 8.85156 25.042V27.373L7.27246 27.3623ZM6.32715 27.5986C6.32715 27.1403 6.46322 26.7715 6.73535 26.4922C7.01465 26.2201 7.38346 26.084 7.8418 26.084H8.27148C8.72982 26.084 9.09505 26.2201 9.36719 26.4922C9.64648 26.7715 9.78613 27.1403 9.78613 27.5986V30.3809C9.78613 30.8392 9.64648 31.2044 9.36719 31.4766C9.09505 31.7559 8.72982 31.8955 8.27148 31.8955H7.8418C7.38346 31.8955 7.01465 31.7559 6.73535 31.4766C6.46322 31.2044 6.32715 30.8392 6.32715 30.3809V27.5986Z" fill="#4643D3"/>
</svg>
