<svg width="32" height="32" viewBox="0 0 32 32" fill="none" xmlns="http://www.w3.org/2000/svg">
<path d="M15.0117 27.6523C14.6966 27.6523 14.4245 27.5628 14.1953 27.3838C13.9733 27.2119 13.8265 26.9684 13.7549 26.6533L13.2178 24.3652C13.0316 24.3008 12.849 24.2327 12.6699 24.1611C12.498 24.0967 12.3333 24.0286 12.1758 23.957L10.1777 25.1709C9.91276 25.3356 9.63704 25.4036 9.35059 25.375C9.06413 25.3535 8.8099 25.2318 8.58789 25.0098L7.22363 23.6455C7.00163 23.4235 6.8763 23.1657 6.84766 22.8721C6.81901 22.5713 6.89062 22.2884 7.0625 22.0234L8.27637 20.0469C8.20475 19.8822 8.13314 19.7174 8.06152 19.5527C7.98991 19.3809 7.92904 19.209 7.87891 19.0371L5.58008 18.4893C5.26497 18.4248 5.0179 18.2816 4.83887 18.0596C4.66699 17.8304 4.58105 17.5547 4.58105 17.2324V15.3096C4.58105 14.9945 4.66699 14.7259 4.83887 14.5039C5.0179 14.2747 5.26497 14.1279 5.58008 14.0635L7.85742 13.5156C7.91471 13.3223 7.97917 13.1396 8.05078 12.9678C8.1224 12.7959 8.19043 12.6348 8.25488 12.4844L7.04102 10.4756C6.86914 10.2106 6.79395 9.9349 6.81543 9.64844C6.84408 9.36198 6.97298 9.10775 7.20215 8.88574L8.58789 7.51074C8.81706 7.2959 9.06413 7.17415 9.3291 7.14551C9.60124 7.1097 9.86979 7.16699 10.1348 7.31738L12.165 8.56348C12.3226 8.4847 12.4909 8.40951 12.6699 8.33789C12.849 8.26628 13.0316 8.19824 13.2178 8.13379L13.7549 5.83496C13.8265 5.52702 13.9733 5.28353 14.1953 5.10449C14.4245 4.91829 14.6966 4.8252 15.0117 4.8252H16.9775C17.2998 4.8252 17.5719 4.91829 17.7939 5.10449C18.016 5.28353 18.1628 5.52702 18.2344 5.83496L18.7715 8.15527C18.9648 8.21973 19.1475 8.28776 19.3193 8.35938C19.4984 8.42383 19.6631 8.49544 19.8135 8.57422L21.8545 7.31738C22.1195 7.16699 22.3844 7.1097 22.6494 7.14551C22.9215 7.18132 23.1686 7.29948 23.3906 7.5L24.7979 8.88574C25.027 9.10775 25.1523 9.36198 25.1738 9.64844C25.1953 9.9349 25.1201 10.2106 24.9482 10.4756L23.7236 12.4844C23.7881 12.6348 23.8561 12.7959 23.9277 12.9678C23.9993 13.1396 24.0674 13.3223 24.1318 13.5156L26.4199 14.0635C26.7279 14.1279 26.9678 14.2747 27.1396 14.5039C27.3187 14.7259 27.4082 14.9945 27.4082 15.3096V17.2324C27.4082 17.5547 27.3187 17.8304 27.1396 18.0596C26.9678 18.2816 26.7279 18.4248 26.4199 18.4893L24.1104 19.0371C24.0531 19.209 23.9922 19.3809 23.9277 19.5527C23.8633 19.7174 23.7881 19.8822 23.7021 20.0469L24.9268 22.0234C25.1058 22.2884 25.181 22.5713 25.1523 22.8721C25.1237 23.1657 24.9984 23.4235 24.7764 23.6455L23.4014 25.0098C23.1794 25.2318 22.9251 25.3535 22.6387 25.375C22.3522 25.4036 22.0765 25.3356 21.8115 25.1709L19.8135 23.957C19.6559 24.0286 19.4876 24.0967 19.3086 24.1611C19.1367 24.2327 18.9577 24.3008 18.7715 24.3652L18.2344 26.6533C18.1628 26.9684 18.016 27.2119 17.7939 27.3838C17.5719 27.5628 17.2998 27.6523 16.9775 27.6523H15.0117ZM16 20.0039C16.6875 20.0039 17.3141 19.8356 17.8799 19.499C18.4528 19.1553 18.9076 18.6969 19.2441 18.124C19.5807 17.5511 19.749 16.9209 19.749 16.2334C19.749 15.5459 19.5807 14.9193 19.2441 14.3535C18.9076 13.7878 18.4528 13.3366 17.8799 13C17.3141 12.6562 16.6875 12.4844 16 12.4844C15.3125 12.4844 14.6823 12.6562 14.1094 13C13.5436 13.3366 13.0889 13.7878 12.7451 14.3535C12.4085 14.9193 12.2402 15.5459 12.2402 16.2334C12.2402 16.9209 12.4085 17.5511 12.7451 18.124C13.0817 18.6969 13.5365 19.1553 14.1094 19.499C14.6823 19.8356 15.3125 20.0039 16 20.0039Z" fill="#4643D3"/>
</svg>
