<svg width="33" height="32" viewBox="0 0 33 32" fill="none" xmlns="http://www.w3.org/2000/svg">
<path d="M16.4893 27.3408C14.971 27.3408 13.5423 27.0508 12.2031 26.4707C10.8639 25.8978 9.68229 25.0993 8.6582 24.0752C7.64128 23.0511 6.84277 21.8695 6.2627 20.5303C5.68262 19.1911 5.39258 17.7624 5.39258 16.2441C5.39258 14.7259 5.68262 13.2972 6.2627 11.958C6.84277 10.6188 7.64128 9.44076 8.6582 8.42383C9.68229 7.39974 10.8604 6.59766 12.1924 6.01758C13.5316 5.4375 14.9603 5.14746 16.4785 5.14746C18.0039 5.14746 19.4362 5.4375 20.7754 6.01758C22.1146 6.59766 23.2962 7.39974 24.3203 8.42383C25.3444 9.44076 26.1465 10.6188 26.7266 11.958C27.3066 13.2972 27.5967 14.7259 27.5967 16.2441C27.5967 17.7624 27.3066 19.1911 26.7266 20.5303C26.1465 21.8695 25.3444 23.0511 24.3203 24.0752C23.2962 25.0993 22.1146 25.8978 20.7754 26.4707C19.4362 27.0508 18.0075 27.3408 16.4893 27.3408ZM16.4893 22.5176C16.6325 22.5176 16.7507 22.471 16.8438 22.3779C16.944 22.2848 16.9941 22.1595 16.9941 22.002V21.2607C17.9036 21.1748 18.6592 20.8848 19.2607 20.3906C19.8623 19.8893 20.1631 19.2126 20.1631 18.3604C20.1631 17.6012 19.916 16.9925 19.4219 16.5342C18.9349 16.0758 18.208 15.7572 17.2412 15.5781L16.9941 15.5244V12.7422C17.3522 12.8066 17.653 12.9427 17.8965 13.1504C18.14 13.3509 18.3154 13.6159 18.4229 13.9453C18.5876 14.3392 18.8525 14.5361 19.2178 14.5361C19.4469 14.5361 19.6296 14.4681 19.7656 14.332C19.9089 14.196 19.9805 14.0205 19.9805 13.8057C19.9805 13.7412 19.9733 13.6768 19.959 13.6123C19.9518 13.5479 19.9375 13.487 19.916 13.4297C19.7656 12.8496 19.429 12.3662 18.9062 11.9795C18.3835 11.5928 17.7461 11.36 16.9941 11.2812V10.54C16.9941 10.3825 16.944 10.2572 16.8438 10.1641C16.7507 10.071 16.6325 10.0244 16.4893 10.0244C16.3389 10.0244 16.2135 10.071 16.1133 10.1641C16.0202 10.2572 15.9736 10.3825 15.9736 10.54V11.2812C15.0999 11.3672 14.3802 11.6608 13.8145 12.1621C13.2487 12.6634 12.9658 13.3079 12.9658 14.0957C12.9658 14.819 13.2057 15.4027 13.6855 15.8467C14.1654 16.2835 14.8708 16.6094 15.8018 16.8242L15.9736 16.8672V19.8105C15.5225 19.7461 15.1644 19.5993 14.8994 19.3701C14.6416 19.141 14.4661 18.8652 14.373 18.543C14.2943 18.3353 14.1904 18.1849 14.0615 18.0918C13.9326 17.9915 13.7715 17.9414 13.5781 17.9414C13.349 17.9414 13.1628 18.013 13.0195 18.1562C12.8835 18.2923 12.8154 18.4714 12.8154 18.6934C12.8154 18.7578 12.819 18.8223 12.8262 18.8867C12.8405 18.9512 12.8584 19.0156 12.8799 19.0801C13.0374 19.6816 13.3919 20.1758 13.9434 20.5625C14.502 20.9492 15.1787 21.1748 15.9736 21.2393V22.002C15.9736 22.1595 16.0202 22.2848 16.1133 22.3779C16.2135 22.471 16.3389 22.5176 16.4893 22.5176ZM15.9736 15.2666L15.8984 15.2451C15.4544 15.109 15.125 14.9408 14.9102 14.7402C14.7025 14.5397 14.5986 14.2891 14.5986 13.9883C14.5986 13.6803 14.7204 13.4118 14.9639 13.1826C15.2145 12.9463 15.5511 12.7959 15.9736 12.7314V15.2666ZM16.9941 17.1143L17.209 17.168C17.696 17.2969 18.0361 17.4688 18.2295 17.6836C18.43 17.8913 18.5303 18.1562 18.5303 18.4785C18.5303 18.8294 18.4014 19.1266 18.1436 19.3701C17.8929 19.6064 17.5098 19.7533 16.9941 19.8105V17.1143Z" fill="#4643D3"/>
</svg>
